<?xml version="1.0" encoding="UTF-8" standalone="no"?>
<!-- Created with Inkscape (http://www.inkscape.org/) -->

<svg
   width="210mm"
   height="297mm"
   viewBox="0 0 210 297"
   version="1.1"
   id="svg1"
   inkscape:version="1.4.2 (f4327f4, 2025-05-13)"
   sodipodi:docname="TodoListEndscreen.svg"
   xmlns:inkscape="http://www.inkscape.org/namespaces/inkscape"
   xmlns:sodipodi="http://sodipodi.sourceforge.net/DTD/sodipodi-0.dtd"
   xmlns="http://www.w3.org/2000/svg"
   xmlns:svg="http://www.w3.org/2000/svg">
  <sodipodi:namedview
     id="namedview1"
     pagecolor="#ffffff"
     bordercolor="#000000"
     borderopacity="0.25"
     inkscape:showpageshadow="2"
     inkscape:pageopacity="0.0"
     inkscape:pagecheckerboard="0"
     inkscape:deskcolor="#d1d1d1"
     inkscape:document-units="mm"
     inkscape:zoom="1.6275884"
     inkscape:cx="250.06322"
     inkscape:cy="469.71335"
     inkscape:window-width="3840"
     inkscape:window-height="2054"
     inkscape:window-x="-11"
     inkscape:window-y="-11"
     inkscape:window-maximized="1"
     inkscape:current-layer="layer1" />
  <defs
     id="defs1" />
  <g
     inkscape:label="Ebene 1"
     inkscape:groupmode="layer"
     id="layer1">
    <rect
       style="fill:#f5f2e8;fill-opacity:1;stroke:#171512;stroke-width:3.20000013;stroke-linecap:round;stroke-linejoin:round;paint-order:fill markers stroke;stroke-opacity:1;stroke-dasharray:none"
       id="rect1"
       width="165"
       height="160.12315"
       x="18.369457"
       y="44.216747"
       ry="8.6354856"
       rx="8.6157637" />
    <rect
       style="fill:#f5f2e8;fill-opacity:1;stroke:#171512;stroke-width:1.79999998;stroke-linecap:round;stroke-linejoin:round;stroke-dasharray:none;stroke-opacity:1;paint-order:fill markers stroke"
       id="rect2"
       width="9.5911322"
       height="9.916256"
       x="33"
       y="57.871918"
       rx="0"
       ry="0" />
    <rect
       style="fill:#f5f2e8;fill-opacity:1;stroke:#171512;stroke-width:1.8;stroke-linecap:round;stroke-linejoin:round;stroke-dasharray:none;stroke-opacity:1;paint-order:fill markers stroke"
       id="rect2-8"
       width="9.5911322"
       height="9.916256"
       x="33.01997"
       y="72.343086"
       rx="0"
       ry="0" />
    <rect
       style="fill:#f5f2e8;fill-opacity:1;stroke:#171512;stroke-width:1.8;stroke-linecap:round;stroke-linejoin:round;stroke-dasharray:none;stroke-opacity:1;paint-order:fill markers stroke"
       id="rect2-1"
       width="9.5911322"
       height="9.916256"
       x="33.01997"
       y="87.671005"
       rx="0"
       ry="0" />
    <rect
       style="fill:#f5f2e8;fill-opacity:1;stroke:#171512;stroke-width:1.8;stroke-linecap:round;stroke-linejoin:round;stroke-dasharray:none;stroke-opacity:1;paint-order:fill markers stroke"
       id="rect2-8-7"
       width="9.5911322"
       height="9.916256"
       x="33.03994"
       y="102.14217"
       rx="0"
       ry="0" />
    <rect
       style="fill:#f5f2e8;fill-opacity:1;stroke:#171512;stroke-width:1.8;stroke-linecap:round;stroke-linejoin:round;stroke-dasharray:none;stroke-opacity:1;paint-order:fill markers stroke"
       id="rect2-7"
       width="9.5911322"
       height="9.916256"
       x="111.03943"
       y="57.656464"
       rx="0"
       ry="0" />
    <rect
       style="fill:#f5f2e8;fill-opacity:1;stroke:#171512;stroke-width:1.8;stroke-linecap:round;stroke-linejoin:round;stroke-dasharray:none;stroke-opacity:1;paint-order:fill markers stroke"
       id="rect2-8-6"
       width="9.5911322"
       height="9.916256"
       x="111.0594"
       y="72.127632"
       rx="0"
       ry="0" />
    <rect
       style="fill:#f5f2e8;fill-opacity:1;stroke:#171512;stroke-width:1.8;stroke-linecap:round;stroke-linejoin:round;stroke-dasharray:none;stroke-opacity:1;paint-order:fill markers stroke"
       id="rect2-1-1"
       width="9.5911322"
       height="9.916256"
       x="111.0594"
       y="87.455551"
       rx="0"
       ry="0" />
    <rect
       style="fill:#f5f2e8;fill-opacity:1;stroke:#171512;stroke-width:1.8;stroke-linecap:round;stroke-linejoin:round;stroke-dasharray:none;stroke-opacity:1;paint-order:fill markers stroke"
       id="rect2-8-7-4"
       width="9.5911322"
       height="9.916256"
       x="111.07937"
       y="101.92672"
       rx="0"
       ry="0" />
    <path
       style="fill:#100f0f;fill-opacity:1;stroke:#171512;stroke-width:0;stroke-linecap:round;stroke-linejoin:round;stroke-dasharray:none;stroke-opacity:1;paint-order:fill markers stroke"
       id="path3"
       d="m 53.747415,65.800922 c 0.146802,-0.101103 0.287872,-0.211074 0.440402,-0.303311 0.413139,-0.249833 1.094703,-0.583356 1.508331,-0.787431 0.810461,-0.399873 1.62075,-0.775846 2.460048,-1.110404 0.795457,-0.179117 1.155878,-0.159422 1.879659,0.226663 0.24112,0.128622 0.940749,0.556324 0.701085,0.425006 -2.476397,-1.356863 -3.447447,-2.057591 -1.926492,-1.005001 0.495284,0.330896 0.963403,0.712782 1.479261,1.013129 1.241785,0.722998 2.458633,1.49329 3.739637,2.144276 0.124544,0.06329 0.285729,0.01371 0.417928,-0.03147 0.148439,-0.05072 0.266636,-0.165328 0.399954,-0.247989 0.399788,-0.369961 0.719257,-0.802145 1.022713,-1.250767 0.125944,-0.186193 0.294931,-0.559411 0.574818,-0.616985 0.107013,-0.02201 0.213233,0.04772 0.319849,0.07158 1.37318,0.92896 -0.223403,-0.165989 -2.616668,-1.411951 -0.137081,-0.07137 0.242451,0.191801 0.360307,0.291769 0.280281,0.237733 0.544711,0.488839 0.831874,0.718643 0.298354,-0.709502 2.550056,2.399717 4.007352,2.045472 0.248111,-0.06031 0.944804,-0.37021 1.153676,-0.46137 0.384927,-0.167994 0.768229,-0.33969 1.152933,-0.508193 0.516122,-0.173786 1.163158,-0.699442 1.702427,-0.761373 0.08064,-0.0093 0.16233,0.0019 0.243496,0.0029 0.09302,0.02537 0.190299,0.03847 0.279064,0.07612 0.129773,0.05505 0.494985,0.269986 0.372478,0.200252 -0.931485,-0.530206 -1.850531,-1.083482 -2.799493,-1.581729 -0.248039,-0.130228 0.463767,0.314452 0.692877,0.47567 0.24651,0.173464 0.488583,0.353158 0.733896,0.528315 0.227066,0.162126 0.455486,0.322347 0.683229,0.483521 1.570452,1.066511 2.002993,1.392383 4.557397,2.494976 0.216075,0.09327 0.471916,-0.02697 0.701755,-0.07758 0.771376,-0.169862 1.441532,-0.607237 2.109131,-1.004162 0.596937,-0.386741 1.160137,-0.823714 1.757733,-1.209408 0.240625,-0.155302 0.540096,-0.377013 0.854183,-0.365249 0.171596,0.0064 0.330944,0.09177 0.496417,0.137655 -0.273148,-0.240488 1.73627,0.950388 1.305713,0.706453 -0.870789,-0.493353 -3.487454,-1.965206 -2.60554,-1.492033 1.316617,0.706398 2.574407,1.522016 3.909976,2.191896 0.163068,0.08179 0.36477,0.06693 0.545613,0.04289 0.164221,-0.02183 0.30957,-0.118097 0.464357,-0.177144 0.124462,-0.09673 0.248928,-0.193461 0.373393,-0.29019 0,0 -3.310038,-2.108388 -3.310038,-2.108388 v 0 c -0.09905,0.06002 -0.198107,0.120042 -0.297161,0.180063 -0.118229,0.01659 -0.235699,0.05947 -0.354688,0.04975 -0.155085,-0.01267 -0.582059,-0.201465 -0.452249,-0.115668 0.878075,0.580358 3.637502,2.11904 2.715424,1.6115 -1.345277,-0.740484 -2.651805,-1.549384 -3.985474,-2.310577 -0.238962,-0.136385 -0.479277,-0.272595 -0.731814,-0.381815 -0.226349,-0.09789 -0.467074,-0.158462 -0.700612,-0.237694 -0.203681,-0.0019 -0.410239,-0.03958 -0.611044,-0.0054 -0.318122,0.0541 -0.643964,0.298718 -0.896432,0.475491 -0.570304,0.399317 -1.113827,0.837417 -1.709936,1.199639 -0.631029,0.355995 -1.280113,0.763606 -2.022483,0.83452 -0.20679,0.01976 -0.784807,-0.158972 -0.622506,-0.02931 0.638661,0.51022 4.120755,2.577015 2.086176,1.289113 -0.594053,-0.412287 -0.830279,-0.569285 -1.416984,-1.005387 -0.218258,-0.162232 -0.415079,-0.355375 -0.648192,-0.495422 -1.285018,-0.771999 -2.584718,-1.520349 -3.901062,-2.237631 -0.138427,-0.07543 -0.297966,-0.107808 -0.453239,-0.135049 -0.112255,-0.01969 -0.227918,-0.003 -0.341876,-0.0044 -0.712288,0.154972 -1.308796,0.58964 -1.964267,0.89213 -0.561425,0.254415 -1.136949,0.558292 -1.737598,0.71047 -0.160795,0.04074 -0.327361,0.07026 -0.493191,0.06632 -0.10168,-0.0024 -0.195363,-0.05666 -0.293045,-0.08499 1.038688,0.610407 2.077376,1.220814 3.116064,1.831223 -0.324286,-0.20185 -0.590185,-0.434258 -0.871717,-0.692938 -0.117078,-0.107575 -0.214778,-0.240387 -0.34992,-0.324147 -3.613605,-2.239684 -2.357696,-1.92342 -4.214936,-2.314056 -0.149141,0.04229 -0.311828,0.05173 -0.447419,0.126876 -0.314912,0.174527 -0.42332,0.445106 -0.613516,0.727154 -0.235688,0.349507 -0.338857,0.505547 -0.637693,0.802161 -0.0944,0.0937 -0.201713,0.173435 -0.30257,0.260152 -0.09501,0.02617 -0.186491,0.07989 -0.285033,0.07852 -0.106563,-0.0016 -0.205155,-0.05783 -0.307734,-0.08674 0.983554,0.575855 1.967108,1.151713 2.950663,1.727568 0.154032,0.08865 -0.299406,-0.191563 -0.44885,-0.287747 -0.680847,-0.438198 -0.378518,-0.23694 -1.07967,-0.72829 -1.838811,-1.327586 -0.769315,-0.585615 -4.653234,-2.825816 -1.054624,-0.608296 -1.629614,-0.747686 -2.795771,-0.376309 -1.528058,0.678527 -3.04302,1.399572 -4.515003,2.191753 z" />
    <path
       style="fill:#100f0f;fill-opacity:1;stroke:#171512;stroke-width:0;stroke-linecap:round;stroke-linejoin:round;stroke-dasharray:none;stroke-opacity:1;paint-order:fill markers stroke"
       id="path4"
       d="m 55.352343,78.574267 c 2.096842,-0.958723 4.33255,-1.570906 6.562593,-2.131936 0.648795,-0.103759 1.332791,-0.235942 1.990177,-0.09661 0.389009,0.08244 0.761291,0.318899 1.109774,0.498464 0.18487,0.06133 0.364654,0.140899 0.554604,0.183989 0.589333,0.133688 1.630008,0.232947 2.181084,0.278201 1.335215,0.109651 2.676049,0.15385 4.014396,0.20514 0.802582,0.06618 1.613212,0.0581 2.414839,0.139483 0.626084,0.06356 1.251762,0.224752 1.868985,0.340016 1.129517,0.17522 2.260859,0.339235 3.392313,0.501499 0.748937,0.107405 1.11448,0.197133 1.857877,0.110516 0.284957,-0.0332 0.56138,-0.118575 0.842071,-0.177866 0.884238,-0.251788 1.684441,-0.704072 2.4819,-1.14812 0.386993,-0.215487 0.83271,-0.503547 1.263439,-0.643387 0.169788,-0.05512 0.350684,-0.06699 0.526028,-0.100486 0.429581,-0.03714 0.821143,0.04046 1.21152,0.212175 0.171217,0.07531 0.321463,0.203263 0.502787,0.249184 0.09334,0.02365 0.192307,0.01029 0.28846,0.01543 0.583035,-0.132132 1.14374,-0.341831 1.70213,-0.551426 0.194009,-0.07282 0.377923,-0.179554 0.58084,-0.221591 0.471382,-0.09765 0.618226,0.0079 1.05119,0.144619 1.533742,0.992026 -0.413158,-0.280525 -2.533648,-1.375648 -0.11834,-0.06112 0.199359,0.177167 0.291026,0.273793 0.147878,0.155874 0.284774,0.349393 0.413205,0.521949 0,0 3.619479,1.561428 3.619479,1.561428 v 0 C 93.390706,77.163111 93.024549,76.572321 92.84849,76.458809 89.622735,74.379033 90.402475,74.716652 88.640911,74.0261 c -0.564907,-0.05931 -0.595365,-0.113289 -1.168397,0.04266 -0.195681,0.05326 -0.377164,0.1494 -0.568114,0.2177 -0.526645,0.188375 -1.06984,0.390424 -1.639133,0.338595 -0.730787,-0.278207 -1.243296,-0.480388 -2.061726,-0.30366 -0.184687,0.0578 -0.375219,0.09949 -0.554064,0.173413 -0.429694,0.177615 -0.839743,0.457261 -1.240806,0.684007 -0.767802,0.434083 -1.552993,0.843229 -2.41972,1.042812 -0.267206,0.04166 -0.531903,0.105312 -0.801622,0.124995 -0.644847,0.04706 -1.133969,-0.03807 -1.777804,-0.12559 -1.147315,-0.155967 -2.293958,-0.327329 -3.42991,-0.552609 -0.370816,-0.07693 -1.004639,-0.218106 -1.409356,-0.271756 -0.944692,-0.12523 -1.907506,-0.04662 -2.855547,-0.11666 -1.327788,-0.03622 -2.658224,-0.07009 -3.979265,-0.222255 -0.778637,-0.08969 -1.486733,-0.194678 -2.230019,-0.427461 -0.191228,-0.05989 -0.370245,-0.153413 -0.555369,-0.230119 -0.279757,-0.125677 -0.477792,-0.232063 -0.775644,-0.301963 -0.794494,-0.186452 -1.616329,0.01725 -2.39104,0.191492 -2.250048,0.636849 -4.484637,1.325874 -6.70352,2.064205 z" />
    <path
       style="fill:#100f0f;fill-opacity:1;stroke:#171512;stroke-width:0;stroke-linecap:round;stroke-linejoin:round;stroke-dasharray:none;stroke-opacity:1;paint-order:fill markers stroke"
       id="path5"
       d="m 53.178167,92.421457 c 0.638,0.445069 1.079876,1.094098 1.521418,1.72094 0.101176,0.14364 0.151952,0.339363 0.300669,0.432917 1.200264,0.755063 2.470952,1.391909 3.706427,2.087864 1.245827,-0.857022 2.428636,-1.802053 3.673975,-2.659745 0.731752,-0.503976 1.69273,-1.168382 2.556838,-1.474623 0.32173,-0.114025 0.670176,-0.130033 1.005266,-0.195049 0.270303,0.04904 0.556794,0.04274 0.810916,0.147111 0.235741,0.09682 0.860028,0.537615 0.623752,0.442108 -0.938138,-0.379208 -1.749827,-1.108792 -2.743671,-1.299008 -0.315208,-0.06033 0.312074,0.562239 0.437542,0.857628 0.267036,0.628666 0.39225,1.174533 0.568219,1.826273 0.06632,0.205782 0.109733,0.420415 0.198961,0.61735 0.05528,0.12202 0.111371,0.267393 0.230053,0.329528 1.255575,0.657346 2.504294,1.358667 3.849066,1.806069 0.218397,0.07266 0.406299,-0.216418 0.61065,-0.322331 0.971653,-0.503595 0.721468,-0.372576 1.788144,-0.870122 1.245822,-0.479044 2.476765,-1.188744 3.83186,-1.310918 0.144531,-0.01304 0.290221,-0.0029 0.435332,-0.0044 0.438896,-0.01326 0.825352,0.203038 1.242817,0.295002 0.274637,0.0605 0.553611,0.09939 0.829707,0.152845 0.141599,0.03507 0.282887,0.07141 0.424793,0.105209 0.347012,0.08264 0.451194,0.09193 0.783495,0.200877 0.370761,0.121557 0.601454,0.217786 0.993455,0.293126 0.911998,0.08205 1.911485,-0.327636 2.807417,-0.258389 0.171773,0.01328 0.337831,0.06781 0.506743,0.101711 0.777613,0.190079 1.429822,0.873286 2.279973,0.772218 0.293574,-0.0349 0.573701,-0.143126 0.860552,-0.214691 0.320564,-0.102759 0.641125,-0.20552 0.961689,-0.308279 0,0 -3.149825,-2.153372 -3.149825,-2.153372 v 0 c -0.319307,0.08576 -0.638614,0.171521 -0.957921,0.25728 -0.278032,0.02619 -0.554958,0.0871 -0.834091,0.07862 -0.776322,-0.0236 -1.491401,-0.744 -2.286402,-0.76672 -0.183081,-0.01291 -0.365715,-0.04022 -0.549244,-0.03871 -0.922406,0.0076 -1.841304,0.357288 -2.765168,0.144497 -0.728326,-0.210937 -1.448718,-0.448921 -2.198515,-0.578691 -0.707573,-0.148112 -1.403046,-0.419929 -2.135545,-0.36402 -1.512792,0.191532 -2.858595,0.905764 -4.24629,1.496867 -0.618921,0.272587 -1.229011,0.565693 -1.854346,0.82322 -0.19109,0.07869 -0.738195,0.07269 -0.583451,0.209663 0.889453,0.78734 2.008952,1.268603 2.997499,1.927241 0.108773,0.07247 -0.273754,-0.06418 -0.354957,-0.166597 -0.136316,-0.171919 -0.171635,-0.40385 -0.25745,-0.605772 -0.161171,-0.589317 -0.349234,-1.317201 -0.553432,-1.888249 -0.112694,-0.31515 -0.124785,-0.712113 -0.379013,-0.929801 -1.169572,-1.001475 -2.502336,-1.796516 -3.79032,-2.640285 -0.215937,-0.141462 -0.45779,-0.255373 -0.71047,-0.308224 -0.279707,-0.0585 -0.571367,-0.0131 -0.857051,-0.01963 -0.336309,0.100264 -0.686996,0.161086 -1.008928,0.300794 -1.387385,0.602078 -2.69929,1.724663 -3.952137,2.562294 -1.43211,0.957485 -0.998907,0.721849 -2.250746,1.227288 0.99424,0.622784 1.948934,1.313686 2.982721,1.868358 0.159076,0.08535 -0.213494,-0.291184 -0.317806,-0.43852 -0.356788,-0.503958 -0.688081,-1.027274 -1.091468,-1.496637 -0.09964,-0.115943 -0.209901,-0.222329 -0.314851,-0.333494 z" />
    <path
       style="fill:#100f0f;fill-opacity:1;stroke:#171512;stroke-width:0;stroke-linecap:round;stroke-linejoin:round;stroke-dasharray:none;stroke-opacity:1;paint-order:fill markers stroke"
       id="path6"
       d="m 51.791898,107.03104 c 0.808191,0.85563 1.549448,1.78101 2.391598,2.60464 0.181878,0.17788 0.350195,0.37764 0.566738,0.51117 1.295757,0.79901 2.638496,1.5192 3.957743,2.2788 0.299098,0.002 0.601062,0.0471 0.897292,0.006 0.642252,-0.0897 1.831425,-0.52812 2.405679,-0.72459 0.806667,-0.276 1.768062,-0.62637 2.595697,-0.84818 0.395497,-0.10599 0.798899,-0.1799 1.198349,-0.26986 1.068231,-0.17023 2.152409,-0.13854 3.224641,-0.0286 0.583676,0.0598 1.081751,0.1158 1.619718,0.36084 0.227997,0.10386 0.427792,0.2609 0.641689,0.39135 -0.91381,-0.5003 -1.805165,-1.044 -2.741428,-1.50089 -0.185848,-0.0907 0.301104,0.28813 0.477489,0.39608 1.244338,0.76158 2.471348,1.56082 3.778493,2.2087 0.329277,0.16321 1.345689,-0.45613 1.645859,-0.60923 0.703802,-0.20214 1.482786,-0.3317 2.20835,-0.15295 0.371967,0.0916 0.723424,0.25236 1.085178,0.37842 0.25382,0.0599 0.502772,0.1466 0.76146,0.17961 0.922531,0.1177 1.520312,0.0458 2.462874,-0.0836 1.286367,-0.17667 2.539365,-0.48555 3.791702,-0.81875 0.933942,-0.23174 1.633468,-0.62451 2.394497,-1.19264 0.465966,-0.34786 0.638474,-0.55518 1.141254,-0.81444 0.14945,-0.0771 0.313513,-0.12169 0.470268,-0.18254 0.539554,-0.12222 0.267197,-0.0805 0.817017,-0.12543 0,0 -3.201974,-2.26185 -3.201974,-2.26185 v 0 c -0.591722,0.10785 -0.302839,0.0314 -0.866883,0.22843 -0.162436,0.0826 -0.331716,0.15298 -0.487302,0.24787 -0.548637,0.33462 -0.578287,0.44746 -1.114502,0.83984 -0.695386,0.50886 -1.444852,0.88599 -2.279443,1.11361 -1.65203,0.46176 -3.359063,0.90277 -5.09124,0.84605 -0.84497,-0.0277 -1.114835,-0.14626 -1.865193,-0.36046 -0.38993,-0.12641 -0.74173,-0.26189 -1.149948,-0.31577 -0.78449,-0.10356 -1.595509,0.0577 -2.326939,0.33259 -0.251111,0.11874 -0.702815,0.36545 -1.000797,0.38421 -0.146386,0.009 -0.554059,-0.16508 -0.431972,-0.0838 0.922901,0.61448 1.882598,1.17472 2.859127,1.69981 0.187947,0.10106 -0.301958,-0.3067 -0.48183,-0.42151 -1.270484,-0.81098 -2.574848,-1.56762 -3.862271,-2.35143 -0.229873,-0.10719 -0.449935,-0.23861 -0.689618,-0.32157 -0.527021,-0.18241 -1.084527,-0.23109 -1.635495,-0.26964 -1.088038,-0.0761 -2.182218,-0.0761 -3.256127,0.14215 -0.399738,0.10059 -0.803079,0.18783 -1.199219,0.30178 -0.793183,0.22816 -1.809374,0.60559 -2.591474,0.85172 -0.663393,0.20878 -1.663195,0.53948 -2.394056,0.5509 -0.277516,0.004 -0.547277,-0.0929 -0.820917,-0.13929 0.876943,0.52935 1.730303,1.09989 2.630826,1.58805 0.224364,0.12162 -0.405112,-0.31151 -0.593522,-0.48366 -0.849034,-0.77574 -1.553212,-1.70246 -2.340329,-2.53727 z" />
    <path
       style="fill:#100f0f;fill-opacity:1;stroke:#171512;stroke-width:0;stroke-linecap:round;stroke-linejoin:round;stroke-dasharray:none;stroke-opacity:1;paint-order:fill markers stroke"
       id="path7"
       d="m 129.4752,106.52088 c 0.40667,0.9002 0.84716,1.82857 1.62091,2.47883 0.27883,0.23432 0.59632,0.41836 0.89449,0.62754 2.08579,1.19404 4.15563,2.72065 6.63483,2.8842 0.90926,0.06 1.76228,-0.16387 2.63062,-0.38922 0.52335,-0.11462 1.03118,-0.3678 1.56588,-0.43962 0.15983,-0.0215 1.12861,-0.0129 1.16422,-0.0137 0.35374,-0.008 0.70716,-0.0265 1.06075,-0.0398 1.3384,-0.11306 2.66275,-0.34199 3.9855,-0.5678 0.80433,-0.13732 1.16484,-0.28079 1.95648,-0.15689 0.23308,0.0365 0.44998,0.14194 0.67497,0.21291 -0.9548,-0.52768 -1.88419,-1.10421 -2.8644,-1.58305 -0.18252,-0.0892 0.31288,0.26033 0.45461,0.40585 0.34709,0.35637 0.63933,0.76315 0.98184,1.12392 0.16339,0.17211 0.30584,0.37613 0.51053,0.49621 1.24856,0.73243 2.55245,1.36617 3.82867,2.04925 0.16959,-0.094 0.35197,-0.16791 0.50878,-0.28195 0.78982,-0.57442 1.36022,-1.62127 1.75615,-2.48803 0,0 -3.3841,-1.91029 -3.3841,-1.91029 v 0 c -0.30942,0.68447 -0.92749,1.86923 -1.62678,2.22487 -0.10803,0.0549 -0.23665,0.0524 -0.35497,0.0786 5.15252,3.23886 3.25935,2.25432 2.31986,1.32889 -0.38343,-0.37769 -0.6212,-0.70727 -0.95511,-1.1249 -0.13436,-0.16804 -0.22258,-0.38837 -0.40484,-0.50271 -1.2461,-0.78173 -2.56401,-1.44268 -3.84603,-2.16403 -0.23503,-0.0395 -0.46704,-0.10734 -0.70511,-0.11839 -0.76968,-0.0357 -1.16628,0.10533 -1.93623,0.24719 -1.31496,0.24229 -2.63765,0.4665 -3.97782,0.50192 -0.62422,-0.002 -1.24928,-0.0365 -1.87267,-0.004 -0.70361,0.0365 -1.34369,0.36176 -2.01636,0.53668 -1.30027,0.32308 -2.19547,0.44907 -3.53169,0.10066 -0.38542,-0.10049 -1.41761,-0.65492 -1.13468,-0.37458 0.59542,0.58997 1.41372,0.90096 2.12057,1.35144 -0.29445,-0.17976 -0.60636,-0.33365 -0.88335,-0.5393 -0.76733,-0.56967 -1.19955,-1.42838 -1.59598,-2.2695 z" />
    <path
       style="fill:#100f0f;fill-opacity:1;stroke:#171512;stroke-width:0;stroke-linecap:round;stroke-linejoin:round;stroke-dasharray:none;stroke-opacity:1;paint-order:fill markers stroke"
       id="path8"
       d="m 128.25682,91.773763 c 0.61261,0.638715 1.27896,1.205595 2.05255,1.642554 4.12541,2.330209 2.71247,1.759003 5.0004,2.604175 0.28154,0.03735 0.56062,0.112054 0.84463,0.112064 1.01888,2.9e-5 1.92852,-0.512172 2.82722,-0.918255 1.30562,-0.589947 1.08016,-0.485296 2.40243,-1.04703 1.36886,-0.565129 2.25423,-0.89539 3.64314,-0.207137 0.21797,0.108013 0.8372,0.495721 0.62464,0.377396 -0.9224,-0.513498 -1.83635,-1.042053 -2.75452,-1.563079 1.2981,0.728142 2.51909,1.61517 3.89431,2.184429 0.20785,0.08604 2.29271,-0.452897 2.31132,-0.456872 1.16116,-0.247874 1.91156,-0.392382 3.10344,-0.44355 0.48415,-0.0208 0.96911,0.01326 1.45367,0.0199 0.7463,0.05912 1.51138,0.09115 2.2476,0.247907 0.57741,0.122941 1.08262,0.334367 1.62993,0.54656 0.89369,0.346482 0.79103,0.309803 1.66608,0.672719 0.39015,0.180798 0.90805,0.470329 1.35994,0.499782 0.73601,0.04797 1.49671,-0.348702 2.15375,-0.61605 0,0 -3.20397,-2.151298 -3.20397,-2.151298 v 0 c -0.464,0.171055 -0.89863,0.36536 -1.39747,0.417986 -0.70195,0.07406 -1.30756,-0.248672 -1.92685,-0.524868 -0.82103,-0.331496 -1.646,-0.699598 -2.50053,-0.938659 -0.99332,-0.277887 -2.02326,-0.318683 -3.04812,-0.347133 -0.48475,0.0084 -0.97044,-0.0061 -1.45425,0.02519 -1.29743,0.08392 -1.88959,0.224192 -3.16586,0.445968 -0.43536,0.07565 -0.86579,0.190627 -1.30626,0.225896 -0.31912,0.02556 -1.19891,-0.256902 -0.95939,-0.04448 0.80024,0.709737 1.83882,1.093251 2.75823,1.639874 -0.0688,-0.04023 -3.84806,-2.607892 -5.31873,-2.790057 -1.04799,-0.129808 -2.00095,0.283985 -2.93617,0.695079 -0.33672,0.143399 -2.09154,0.891727 -2.42875,1.031316 -0.87859,0.363702 -1.76981,0.785712 -2.74942,0.705081 -0.2662,-0.02191 -0.52303,-0.108705 -0.78454,-0.163055 -1.79188,-0.720379 -0.90158,-0.415669 1.59606,1.142484 0.2412,0.150474 -0.50225,-0.267867 -0.74121,-0.421876 -0.42431,-0.27346 -0.60619,-0.451 -0.95092,-0.789961 -0.10007,-0.0984 -0.19581,-0.201118 -0.29372,-0.301678 z" />
    <path
       style="fill:#100f0f;fill-opacity:1;stroke:#171512;stroke-width:0;stroke-linecap:round;stroke-linejoin:round;stroke-dasharray:none;stroke-opacity:1;paint-order:fill markers stroke"
       id="path9"
       d="m 133.26373,81.607532 c 1.50468,0.716465 2.90877,1.634516 4.4648,2.244955 0.43189,0.169434 0.87844,0.298802 1.31766,0.448202 1.33012,0.1598 1.52788,0.294544 2.86032,0.01005 1.1384,-0.243057 1.75798,-0.611468 2.8111,-1.092441 1.75844,-0.803103 1.13065,-0.527143 2.90952,-1.241047 1.10252,-0.387389 2.24182,-0.929571 3.44856,-0.815022 0.92477,0.08778 1.80956,0.587632 2.63675,0.966975 0.79338,0.421415 1.54013,0.599112 2.43411,0.613982 0.26853,0.0045 0.53692,-0.01632 0.80515,-0.02955 0.23947,-0.01183 0.4784,-0.0583 0.71781,-0.0456 0.21113,0.01119 0.41562,0.0778 0.62343,0.116708 0.41362,0.08912 1.17035,0.802907 1.57144,0.753612 0.35826,-0.04403 0.68184,-0.237447 1.01931,-0.365503 0.80044,-0.303736 1.6581,-0.665469 2.44872,-0.992553 0.85567,-0.316724 1.80847,-0.928039 2.7611,-0.572693 0.27021,0.10079 1.0014,0.570161 0.74019,0.447934 -2.54679,-1.191731 -3.20141,-1.980028 -1.71936,-0.52533 0.2005,0.223674 0.401,0.44735 0.6015,0.671026 0,0 3.53095,1.48663 3.53095,1.48663 v 0 c -0.20552,-0.232434 -0.41104,-0.464865 -0.61657,-0.697299 -1.74282,-1.845461 -0.79993,-0.974585 -4.79362,-3.330167 -0.26241,-0.154774 -0.55018,-0.279763 -0.84927,-0.337683 -0.97823,-0.189436 -1.91405,0.451102 -2.77689,0.769684 -0.9229,0.373814 -2.40033,1.098518 -3.41505,1.034928 -0.27367,-0.01714 -1.32819,-0.784802 -1.61233,-0.664242 -0.21925,-0.01677 -0.43787,-0.04876 -0.65775,-0.05035 -0.9033,-0.0066 -0.51772,0.109569 -1.46566,0.03842 -0.83619,-0.06276 -1.60393,-0.331025 -2.35109,-0.701709 -0.87421,-0.373049 -1.75975,-0.793507 -2.73454,-0.802923 -1.21077,-0.0117 -2.32753,0.557321 -3.43047,0.967105 -2.31564,0.949576 -0.60683,0.233005 -2.92363,1.247285 -1.00557,0.44023 -1.67078,0.792131 -2.75869,0.978953 -1.27868,0.219581 -1.50385,0.07138 -2.76727,-0.141486 -0.43413,-0.159697 -0.87547,-0.301021 -1.30239,-0.479094 -1.60618,-0.669951 -3.0582,-1.645235 -4.64177,-2.360416 z" />
    <path
       style="fill:#100f0f;fill-opacity:1;stroke:#171512;stroke-width:0;stroke-linecap:round;stroke-linejoin:round;stroke-dasharray:none;stroke-opacity:1;paint-order:fill markers stroke"
       id="path10"
       d="m 132.68427,64.443704 c 0.30477,0.01347 0.60926,0.0364 0.9143,0.0404 4.24797,0.0557 8.49542,-0.374711 12.72363,-0.724426 1.55875,-0.06149 2.55168,-0.210011 4.05878,0.104772 0.47723,0.09968 1.74247,0.803553 1.38393,0.473194 -0.59953,-0.552408 -2.84741,-1.588593 -2.14514,-1.174575 4.2953,2.532276 2.64834,2.200007 5.21928,2.512258 0.38453,-0.105082 0.77992,-0.176432 1.1536,-0.315246 0.45273,-0.168185 0.88408,-0.3898 1.31756,-0.602747 0.84291,-0.414078 1.73137,-0.923301 2.55896,-1.370944 0.34288,-0.185468 0.67735,-0.388429 1.03233,-0.549561 0.27818,-0.126272 0.57487,-0.206973 0.86231,-0.310459 0.67935,-0.04286 0.70788,-0.115282 1.33752,0.101952 0.19284,0.06653 0.73156,0.359958 0.55534,0.25718 -0.91092,-0.531278 -1.82147,-1.065593 -2.76134,-1.543793 -0.24763,-0.125995 0.45418,0.320204 0.67854,0.484079 0.26554,0.193947 0.5274,0.392887 0.7911,0.58933 0.84087,0.583613 1.6046,1.295625 2.49519,1.808165 3.81972,2.198248 2.40934,1.773005 4.29611,2.282783 0.93454,0.08937 0.46054,0.04974 1.42208,0.117972 0,0 -3.10748,-2.299269 -3.10748,-2.299269 v 0 c -0.95176,-0.0986 -0.4847,-0.02643 -1.40163,-0.213418 -1.4997,-0.576826 -0.62036,-0.267626 2.41896,1.518431 0.17236,0.101287 -0.34759,-0.198004 -0.51571,-0.306187 -0.71342,-0.459076 -1.37793,-0.99038 -2.05741,-1.496531 -0.25524,-0.192997 -0.51248,-0.3834 -0.76574,-0.578995 -0.21537,-0.166331 -0.40741,-0.365583 -0.64007,-0.506722 -1.28625,-0.780267 -2.58715,-1.53773 -3.9103,-2.253634 -0.31557,-0.170741 -0.92272,-0.260538 -1.26958,-0.237387 -0.25313,0.01691 -0.49818,0.09616 -0.74727,0.144235 -0.284,0.124725 -0.57584,0.23295 -0.85202,0.374171 -0.34166,0.174713 -0.66508,0.383016 -0.99889,0.572305 -1.21212,0.687337 -2.50213,1.471617 -3.85055,1.859293 -0.35474,0.101989 -0.7286,0.118827 -1.09289,0.178242 -0.30691,-0.06912 -1.16105,-0.410351 -0.92072,-0.207352 0.67148,0.567166 3.0403,1.764724 2.2679,1.34525 -1.45759,-0.79159 -2.83874,-1.724141 -4.32425,-2.462016 -0.42649,-0.211849 -0.90875,-0.299763 -1.37958,-0.371174 -1.46086,-0.22157 -2.47203,-0.06012 -3.96435,0.04043 -4.62252,0.444273 -9.29887,0.888151 -13.93533,0.383276 z" />
  </g>
</svg>
